<svg width="89" height="111" viewBox="0 0 89 111" fill="none" xmlns="http://www.w3.org/2000/svg">
<path d="M44.5 55.5C47.5479 55.5 50.158 54.4139 52.3304 52.2415C54.5027 50.0692 55.587 47.4609 55.5833 44.4167C55.5833 41.3688 54.4972 38.7587 52.3248 36.5863C50.1525 34.414 47.5442 33.3297 44.5 33.3334C41.4521 33.3334 38.842 34.4195 36.6696 36.5919C34.4973 38.7642 33.413 41.3725 33.4167 44.4167C33.4167 47.4646 34.5028 50.0748 36.6752 52.2471C38.8475 54.4194 41.4558 55.5037 44.5 55.5ZM44.5 96.2313C55.7681 85.8869 64.1267 76.4882 69.576 68.0353C75.0253 59.5824 77.75 52.079 77.75 45.525C77.75 35.4577 74.5395 27.2154 68.1186 20.7981C61.6976 14.3809 53.8248 11.1704 44.5 11.1667C35.1715 11.1667 27.2968 14.3772 20.8759 20.7981C14.4549 27.2191 11.2463 35.4614 11.25 45.525C11.25 52.0827 13.9746 59.5879 19.424 68.0408C24.8733 76.4937 33.2319 85.8905 44.5 96.2313ZM44.5 110.917C29.6299 98.2632 18.5244 86.5112 11.1835 75.6606C3.84264 64.81 0.170359 54.7648 0.166664 45.525C0.166664 31.6709 4.62401 20.6337 13.5387 12.4136C22.4534 4.19344 32.7738 0.083374 44.5 0.083374C56.2299 0.083374 66.5521 4.19344 75.4668 12.4136C84.3815 20.6337 88.837 31.6709 88.8333 45.525C88.8333 54.7612 85.161 64.8064 77.8165 75.6606C70.4719 86.5149 59.3664 98.2669 44.5 110.917Z" fill="black"/>
</svg>
