<svg width="111" height="111" viewBox="0 0 111 111" fill="none" xmlns="http://www.w3.org/2000/svg">
<path d="M55.4446 0.083374C24.8546 0.083374 0.083313 24.91 0.083313 55.5C0.083313 86.09 24.8546 110.917 55.4446 110.917C86.09 110.917 110.917 86.09 110.917 55.5C110.917 24.91 86.09 0.083374 55.4446 0.083374ZM55.5 99.8334C31.0058 99.8334 11.1666 79.9942 11.1666 55.5C11.1666 31.0059 31.0058 11.1667 55.5 11.1667C79.9941 11.1667 99.8333 31.0059 99.8333 55.5C99.8333 79.9942 79.9941 99.8334 55.5 99.8334ZM58.2708 27.7917H49.9583V61.0417L79.0521 78.498L83.2083 71.6817L58.2708 56.8855V27.7917Z" fill="black"/>
</svg>
