<svg width="107" height="105" viewBox="0 0 107 105" fill="none" xmlns="http://www.w3.org/2000/svg">
<path d="M92.2917 53.5C92.2917 42.6937 88.527 33.526 80.9977 25.9967C73.4685 18.4674 64.3026 14.7046 53.5 14.7083V3.625C60.4271 3.625 66.9164 4.94207 72.9679 7.57621C79.0194 10.2103 84.284 13.7644 88.7616 18.2384C93.2393 22.7197 96.7952 27.9843 99.4293 34.0321C102.063 40.0799 103.379 46.5692 103.375 53.5H92.2917ZM70.125 53.5C70.125 48.8819 68.5087 44.9566 65.276 41.724C62.0434 38.4913 58.1181 36.875 53.5 36.875V25.7917C61.166 25.7917 67.7014 28.4942 73.1064 33.8991C78.5114 39.3041 81.212 45.8377 81.2083 53.5H70.125ZM97.5563 103.375C85.6417 103.375 74.0263 100.719 62.7103 95.4061C51.3942 90.0935 41.373 83.074 32.6467 74.3477C23.9204 65.6215 16.901 55.6003 11.5884 44.2842C6.27577 32.9681 3.62131 21.3546 3.625 9.44375C3.625 7.78125 4.17917 6.39583 5.2875 5.2875C6.39584 4.17917 7.78125 3.625 9.44375 3.625H31.8875C33.1806 3.625 34.3351 4.04062 35.351 4.87187C36.367 5.70312 36.9674 6.76528 37.1521 8.05833L40.7542 27.4542C40.9389 28.7472 40.9149 29.9258 40.6821 30.9897C40.4494 32.0538 39.9192 32.9995 39.0917 33.8271L25.6531 47.4042C29.5323 54.0542 34.4053 60.2885 40.272 66.1073C46.1388 71.926 52.5801 76.9597 59.5958 81.2083L72.6188 68.1854C73.45 67.3542 74.5362 66.7298 75.8773 66.3123C77.2183 65.8949 78.5336 65.7803 79.8229 65.9688L98.9417 69.8479C100.235 70.125 101.297 70.7494 102.128 71.721C102.959 72.6926 103.375 73.8231 103.375 75.1125V97.5563C103.375 99.2188 102.821 100.604 101.713 101.713C100.604 102.821 99.2188 103.375 97.5563 103.375ZM20.3885 36.875L29.5323 27.7312L27.1771 14.7083H14.8469C15.3087 18.4951 15.9552 22.2358 16.7865 25.9302C17.6177 29.6247 18.8184 33.2729 20.3885 36.875ZM69.9865 86.4729C73.5885 88.0431 77.2608 89.2899 81.0033 90.2135C84.7458 91.1372 88.5086 91.7375 92.2917 92.0146V79.8229L79.2688 77.1906L69.9865 86.4729Z" fill="black"/>
</svg>
